<svg xmlns="http://www.w3.org/2000/svg" width="31" height="26" viewBox="0 0 31 26">
    <defs>
        <path id="a" d="M.003.148h13.883v12.207H.003z"/>
    </defs>
    <g fill="none" fill-rule="evenodd">
        <path fill="#9B9B9B" d="M11.235 3.295H2.948c-.735 0-1.328-.651-1.328-.651S.235.995.086.804C-.063.615-.049 0 .375 0h8.001c.968 0 1.654.777 1.654.777s1.179 1.46 1.348 1.672c.311.388.09.846-.143.846" opacity=".5"/>
        <path fill="#9B9B9B" d="M14.53 7.413H6.241c-.734 0-1.327-.65-1.327-.65S3.53 5.112 3.38 4.922c-.15-.19-.136-.805.289-.805h8c.969 0 1.655.778 1.655.778l1.348 1.67c.31.39.09.847-.144.847" opacity=".503"/>
        <path fill="#9B9B9B" d="M18.648 12.355H10.36c-.735 0-1.328-.65-1.328-.65S7.65 10.054 7.5 9.864c-.149-.19-.135-.805.289-.805h8.001c.968 0 1.654.778 1.654.778l1.349 1.671c.31.388.09.846-.144.846" opacity=".5"/>
        <path fill="#9B9B9B" d="M6.886 16.474h8.287c.735 0 1.328-.651 1.328-.651s1.385-1.649 1.534-1.84c.149-.19.135-.804-.289-.804H9.745c-.968 0-1.654.777-1.654.777l-1.348 1.671c-.311.389-.09.847.143.847" opacity=".509"/>
        <path fill="#9B9B9B" d="M3.592 20.592h8.286c.735 0 1.328-.65 1.328-.65s1.385-1.65 1.534-1.84c.15-.19.136-.805-.288-.805H6.45c-.968 0-1.654.778-1.654.778l-1.348 1.67c-.31.389-.09.847.144.847M.297 25.534h8.287c.734 0 1.327-.65 1.327-.65s1.385-1.65 1.534-1.84c.15-.19.136-.805-.288-.805H3.155c-.968 0-1.653.778-1.653.778s-1.18 1.459-1.349 1.67c-.31.389-.09.847.144.847" opacity=".5"/>
        <path fill="#676F76" d="M16.683 18.707c.103-.12 2.753-3.793 3.77-5.204.162-.224.633-.247.823 0l9.044 11.462c.1.127.025.57-.345.57h-8.21c-.503 0-.766-.2-1.316-.777-1.492-1.566-3.684-4.684-3.785-4.82-.23-.314-.276-.887.02-1.23"/>
        <path fill="#9B9B9B" d="M16.66 5.34L20.469.86s.615-.855 1.494-.855c2.03 0 7.418-.004 7.95-.004.656 0 .68.566.375.937L21.87 11.162c-.424.514-.961.481-1.386-.032a1710.65 1710.65 0 0 1-3.818-4.615c-.245-.305-.266-.87-.006-1.175" opacity=".503"/>
    </g>
</svg>
